<?xml version="1.0" encoding="UTF-8" standalone="no"?>
<!-- Created with Inkscape (http://www.inkscape.org/) -->

<svg
   width="210mm"
   height="297mm"
   viewBox="0 0 210 297"
   version="1.1"
   id="svg617"
   inkscape:version="1.2.2 (b0a8486541, 2022-12-01)"
   sodipodi:docname="DominoDisk-logo.svg"
   xmlns:inkscape="http://www.inkscape.org/namespaces/inkscape"
   xmlns:sodipodi="http://sodipodi.sourceforge.net/DTD/sodipodi-0.dtd"
   xmlns="http://www.w3.org/2000/svg"
   xmlns:svg="http://www.w3.org/2000/svg">
  <sodipodi:namedview
     id="namedview619"
     pagecolor="#ffffff"
     bordercolor="#000000"
     borderopacity="0.25"
     inkscape:showpageshadow="2"
     inkscape:pageopacity="0.0"
     inkscape:pagecheckerboard="0"
     inkscape:deskcolor="#d1d1d1"
     inkscape:document-units="mm"
     showgrid="false"
     inkscape:zoom="5.6568543"
     inkscape:cx="277.53941"
     inkscape:cy="242.53763"
     inkscape:window-width="1920"
     inkscape:window-height="1001"
     inkscape:window-x="0"
     inkscape:window-y="31"
     inkscape:window-maximized="1"
     inkscape:current-layer="layer1" />
  <defs
     id="defs614">
    <rect
       x="263.21171"
       y="296.05227"
       width="100.87792"
       height="24.41056"
       id="rect837" />
  </defs>
  <g
     inkscape:label="Layer 1"
     inkscape:groupmode="layer"
     id="layer1">
    <g
       id="g3297"
       transform="matrix(0,0.02645833,0.02645833,0,69.796628,64.033784)"
       inkscape:export-filename="g3297.svg"
       inkscape:export-xdpi="1920.0065"
       inkscape:export-ydpi="1920.0065">
      <g
         id="layer1-03"
         inkscape:label="Domino"
         transform="translate(0,-52.362)">
        <rect
           id="rect1872-46"
           style="fill:#ffffff;fill-rule:evenodd;stroke:#000000;stroke-width:27.517;stroke-linejoin:round"
           rx="50"
           ry="50"
           height="972.47998"
           width="472.48001"
           y="66.121002"
           x="13.759" />
        <path
           id="path15666-369"
           style="fill:none;stroke:#000000;stroke-width:10px"
           inkscape:connector-curvature="0"
           d="M 45,552.36 H 455" />
      </g>
      <g
         id="layer2-8"
         inkscape:label="Pips"
         transform="translate(0,-52.362)">
        <circle
           id="circle48-9"
           style="fill:#000000"
           cy="456"
           cx="110"
           r="50" />
        <circle
           id="circle50-0"
           style="fill:#000000"
           cy="168"
           cx="390"
           r="50" />
        <circle
           id="circle52-3"
           style="fill:#000000"
           cy="936"
           cx="110"
           r="50" />
        <circle
           id="circle54-8"
           style="fill:#000000"
           cy="648"
           cx="390"
           r="50" />
      </g>
    </g>
    <g
       aria-label="DominoDisk"
       transform="matrix(0.26458333,0,0,0.26458333,1.0372797,0)"
       id="text835"
       style="font-size:6.23999px;font-family:OCRA;-inkscape-font-specification:'OCRA, Normal';white-space:pre;shape-inside:url(#rect837);display:inline;fill:#040100">
      <path
         d="m 269.87763,305.3861 v 1.33333 h -5.33335 v -9.33336 h 5.33335 v 1.33334 h -4.00002 v 6.66669 z m 1.33333,0 h -1.33333 v -6.66669 h 1.33333 z"
         style="font-weight:500;font-size:10.6667px;font-family:'Print Char 21';-inkscape-font-specification:'Print Char 21, Medium'"
         id="path1625" />
      <path
         d="m 279.21099,305.3861 v 1.33333 h -4.00001 v -1.33333 z m 1.33334,0 h -1.33334 v -4.00002 h 1.33334 z m -6.66669,-4.00002 h 1.33334 v 4.00002 h -1.33334 z m 5.33335,-1.33333 v 1.33333 h -4.00001 v -1.33333 z"
         style="font-weight:500;font-size:10.6667px;font-family:'Print Char 21';-inkscape-font-specification:'Print Char 21, Medium'"
         id="path1627" />
      <path
         d="m 289.87769,300.05275 v 6.66668 h -1.33334 v -5.33335 h -1.33334 v -1.33333 z m -6.66669,6.66668 v -6.66668 h 2.66668 v 1.33333 h -1.33334 v 5.33335 z m 4.00001,-1.33333 h -1.33333 v -4.00002 h 1.33333 z"
         style="font-weight:500;font-size:10.6667px;font-family:'Print Char 21';-inkscape-font-specification:'Print Char 21, Medium'"
         id="path1629" />
      <path
         d="m 297.87771,305.3861 v 1.33333 h -4.00001 v -1.33333 h 1.33334 v -4.00002 h -1.33334 v -1.33333 h 2.66668 v 5.33335 z m -1.33333,-8.00003 v 1.33334 h -1.33334 v -1.33334 z"
         style="font-weight:500;font-size:10.6667px;font-family:'Print Char 21';-inkscape-font-specification:'Print Char 21, Medium'"
         id="path1631" />
      <path
         d="m 301.87773,306.71943 v -6.66668 h 5.33335 v 1.33333 h -4.00002 v 5.33335 z m 5.33335,0 v -5.33335 h 1.33333 v 5.33335 z"
         style="font-weight:500;font-size:10.6667px;font-family:'Print Char 21';-inkscape-font-specification:'Print Char 21, Medium'"
         id="path1633" />
      <path
         d="m 316.54444,305.3861 v 1.33333 h -4.00001 v -1.33333 z m 1.33334,0 h -1.33334 v -4.00002 h 1.33334 z m -6.66669,-4.00002 h 1.33334 v 4.00002 h -1.33334 z m 5.33335,-1.33333 v 1.33333 h -4.00001 v -1.33333 z"
         style="font-weight:500;font-size:10.6667px;font-family:'Print Char 21';-inkscape-font-specification:'Print Char 21, Medium'"
         id="path1635" />
      <path
         d="m 325.8778,305.3861 v 1.33333 h -5.33335 v -9.33336 h 5.33335 v 1.33334 h -4.00001 v 6.66669 z m 1.33334,0 h -1.33334 v -6.66669 h 1.33334 z"
         style="font-weight:500;font-size:10.6667px;font-family:'Print Char 21';-inkscape-font-specification:'Print Char 21, Medium'"
         id="path1637" />
      <path
         d="m 335.21117,305.3861 v 1.33333 h -4.00002 v -1.33333 h 1.33334 v -4.00002 h -1.33334 v -1.33333 h 2.66668 v 5.33335 z m -1.33334,-8.00003 v 1.33334 h -1.33334 v -1.33334 z"
         style="font-weight:500;font-size:10.6667px;font-family:'Print Char 21';-inkscape-font-specification:'Print Char 21, Medium'"
         id="path1639" />
      <path
         d="m 344.54453,305.3861 v 1.33333 h -5.33335 v -1.33333 z m 1.33333,-5.33335 v 1.33333 h -5.33335 v -1.33333 z m 0,4.00001 v 1.33334 h -1.33333 v -1.33334 z m -1.33333,-1.33334 v 1.33334 h -4.00002 v -1.33334 z m -5.33335,-1.33334 h 1.33333 v 1.33334 h -1.33333 z"
         style="font-weight:500;font-size:10.6667px;font-family:'Print Char 21';-inkscape-font-specification:'Print Char 21, Medium'"
         id="path1641" />
      <path
         d="m 353.87788,305.3861 h 1.33334 v 1.33333 h -1.33334 z m 1.33334,-5.33335 v 1.33333 h -1.33334 v -1.33333 z m -6.66669,6.66668 v -9.33336 h 1.33334 v 5.33335 h 2.66668 v 1.33334 h -2.66668 v 2.66667 z m 4.00002,-1.33333 v -1.33334 h 1.33333 v 1.33334 z m 1.33333,-2.66668 h -1.33333 v -1.33334 h 1.33333 z"
         style="font-weight:500;font-size:10.6667px;font-family:'Print Char 21';-inkscape-font-specification:'Print Char 21, Medium'"
         id="path1643" />
    </g>
    <rect
       style="fill:#040100;stroke-width:0.264583"
       id="rect4332"
       width="0.49461511"
       height="10.919796"
       x="82.779182"
       y="65.182854"
       rx="0.22886288"
       ry="0.29334962"
       inkscape:export-filename="g3297.svg"
       inkscape:export-xdpi="1920.0065"
       inkscape:export-ydpi="1920.0065" />
  </g>
</svg>
